<?xml version="1.0" encoding="UTF-8"?><svg id="Layer_2" xmlns="http://www.w3.org/2000/svg" viewBox="0 0 26.41 49.48"><g id="Layer_1-2"><g id="start-stop-pause"><path d="m11.93,20.27c.4.78.64,1.3.73,1.56.09.26.17.49.24.71.07.21.12.35.13.41.04-.18.16-.55.35-1.13.18-.46.42-.97.73-1.55l2.12-3.8h8.9l-7.64,10.35,8.92,11.94h-8.88l-3.33-5.61c-.22-.34-.45-.77-.68-1.3-.04-.16-.1-.38-.18-.64-.07-.26-.15-.51-.22-.73-.19.65-.35,1.1-.46,1.37-.15.44-.36.88-.64,1.3l-3.29,5.61H0l8.77-11.94L1.26,16.47h8.59l2.08,3.8Z" fill="#fff"/></g></g></svg>